<svg xmlns="http://www.w3.org/2000/svg" viewBox="0 0 64 64">
  <rect width="64" height="64" rx="14" fill="#0B0F19"/>
  <path
    d="M18 42c3.2 3.3 7.3 5 12.3 5 6.6 0 10.8-3.2 10.8-8.2 0-4.2-2.8-6.5-8.8-8l-3.6-.9c-3.2-.8-4.5-1.7-4.5-3.7 0-2.2 2.1-3.7 5.3-3.7 3.5 0 6.4 1.2 8.9 3.7l4.4-5.1c-3.2-3.1-7.5-4.8-12.9-4.8-6.6 0-11 3.6-11 8.8 0 4.6 3.1 7 9.1 8.4l3.5.8c3 .7 4.2 1.6 4.2 3.4 0 2-1.9 3.2-5.1 3.2-3.4 0-6.1-1.1-8.5-3.7L18 42Z"
    fill="#F8FAFC"
  />
  <path
    d="M42 44.5c1.2-1.5 1.8-3.4 1.8-5.8 0-5.6-3.8-8.8-10.6-10.4l-3.4-.8c-2.1-.5-2.8-.9-2.8-1.8 0-.8.9-1.4 2.7-1.4 2.2 0 4.4.7 6.6 2.1l2.8-3.3c-2.5-1.8-5.7-2.7-9.4-2.7-5.1 0-8.2 2.3-8.2 5.6 0 3 2.1 4.6 6.7 5.7l3.6.9c4.3 1 6.4 2.8 6.4 6.2 0 1.7-.6 3-1.7 4.1 2.1.5 3.9 1.1 5.5 1.6Z"
    fill="#22D3EE"
    opacity=".85"
  />
</svg>
